<svg width="252" height="111" viewBox="0 0 252 111" fill="none" xmlns="http://www.w3.org/2000/svg">
<g clip-path="url(#clip0_32226_41344)">
<path opacity="0.2" d="M221.398 109.554C221.398 96.759 218.675 84.5903 213.783 73.6023C215.554 69.9397 216.542 65.8313 216.542 61.4939C216.542 46.0963 204.06 33.6144 188.663 33.6144C185.783 33.6144 183 34.0481 180.374 34.8674C166.663 26.1445 150.386 21.0843 132.928 21.0843C130.759 21.0843 128.602 21.1686 126.458 21.3132C122.639 18.4337 117.904 16.7349 112.759 16.7349C103.036 16.7349 94.747 22.8192 91.4699 31.3855C84.7591 34.9517 78.5663 39.3493 73.0241 44.4578C71.2169 44.0481 69.3494 43.8313 67.4217 43.8313C53.4699 43.8313 42.1687 55.1325 42.1687 69.0843C42.1687 75.1566 44.3133 80.7349 47.8916 85.0963C45.6627 92.8674 44.4699 101.06 44.4699 109.542H221.398V109.554Z" fill="#D2E9F7"/>
<path opacity="0.2" d="M241.59 70.7832C241.59 74.0241 238.964 76.6386 235.735 76.6386C232.506 76.6386 229.88 74.0121 229.88 70.7832C229.88 67.5542 232.506 64.9277 235.735 64.9277C238.964 64.9277 241.59 67.5542 241.59 70.7832Z" fill="#D2E9F7"/>
<path opacity="0.2" d="M152.253 20.6987C156.538 20.6987 160.012 17.2249 160.012 12.9397C160.012 8.6545 156.538 5.18066 152.253 5.18066C147.968 5.18066 144.494 8.6545 144.494 12.9397C144.494 17.2249 147.968 20.6987 152.253 20.6987Z" fill="#D2E9F7"/>
<path opacity="0.2" d="M81.3735 31.9037C81.3735 33.735 79.8795 35.229 78.0482 35.229C76.2169 35.229 74.7229 33.735 74.7229 31.9037C74.7229 30.0723 76.2169 28.5784 78.0482 28.5784C79.8795 28.5784 81.3735 30.0723 81.3735 31.9037Z" fill="#D2E9F7"/>
<path opacity="0.2" d="M182.771 29.1325C184.608 29.1325 186.096 27.6437 186.096 25.8072C186.096 23.9707 184.608 22.4819 182.771 22.4819C180.935 22.4819 179.446 23.9707 179.446 25.8072C179.446 27.6437 180.935 29.1325 182.771 29.1325Z" fill="#D2E9F7"/>
<path opacity="0.2" d="M112.783 3.3253C112.783 5.15663 111.289 6.6506 109.458 6.6506C107.627 6.6506 106.133 5.15663 106.133 3.3253C106.133 1.49398 107.627 0 109.458 0C111.289 0 112.783 1.49398 112.783 3.3253Z" fill="#D2E9F7"/>
<path opacity="0.2" d="M233.614 86.5543C234.493 86.5543 235.205 85.8422 235.205 84.9639C235.205 84.0856 234.493 83.3735 233.614 83.3735C232.736 83.3735 232.024 84.0856 232.024 84.9639C232.024 85.8422 232.736 86.5543 233.614 86.5543Z" fill="#D2E9F7"/>
<path opacity="0.2" d="M182.229 2.3012C182.229 2.86746 181.771 3.32529 181.205 3.32529C180.638 3.32529 180.181 2.86746 180.181 2.3012C180.181 1.73493 180.638 1.2771 181.205 1.2771C181.771 1.2771 182.229 1.73493 182.229 2.3012Z" fill="#D2E9F7"/>
<path opacity="0.2" d="M79.3735 8.74696C80.1121 8.74696 80.7108 8.14821 80.7108 7.40962C80.7108 6.67102 80.1121 6.07227 79.3735 6.07227C78.6349 6.07227 78.0361 6.67102 78.0361 7.40962C78.0361 8.14821 78.6349 8.74696 79.3735 8.74696Z" fill="#D2E9F7"/>
<path opacity="0.2" d="M25.2651 37.1808C25.2651 38.1567 24.4699 38.9518 23.494 38.9518C22.5181 38.9518 21.7229 38.1567 21.7229 37.1808C21.7229 36.2049 22.5181 35.4097 23.494 35.4097C24.4699 35.4097 25.2651 36.2049 25.2651 37.1808Z" fill="#D2E9F7"/>
<path opacity="0.2" d="M251.41 40.9999C251.41 42.1445 250.482 43.0602 249.349 43.0602C248.217 43.0602 247.289 42.1325 247.289 40.9999C247.289 39.8674 248.217 38.9397 249.349 38.9397C250.482 38.9397 251.41 39.8674 251.41 40.9999Z" fill="#D2E9F7"/>
<path opacity="0.2" d="M51.988 37.53C56.1402 37.53 59.5061 34.1641 59.5061 30.012C59.5061 25.8599 56.1402 22.4939 51.988 22.4939C47.8359 22.4939 44.47 25.8599 44.47 30.012C44.47 34.1641 47.8359 37.53 51.988 37.53Z" fill="#D2E9F7"/>
<path opacity="0.2" d="M10.3976 81.3254C10.3976 82.47 9.46987 83.3856 8.33734 83.3856C7.20481 83.3856 6.2771 82.4579 6.2771 81.3254C6.2771 80.1928 7.20481 79.2651 8.33734 79.2651C9.46987 79.2651 10.3976 80.1928 10.3976 81.3254Z" fill="#D2E9F7"/>
<path opacity="0.2" d="M227.554 31.9037C227.554 35.9278 224.289 39.1928 220.265 39.1928C216.241 39.1928 212.976 35.9278 212.976 31.9037C212.976 27.8796 216.241 24.6145 220.265 24.6145C224.289 24.6145 227.554 27.8796 227.554 31.9037Z" fill="#D2E9F7"/>
<path opacity="0.2" d="M8.33735 66.3976C12.9419 66.3976 16.6747 62.6648 16.6747 58.0602C16.6747 53.4557 12.9419 49.7229 8.33735 49.7229C3.73276 49.7229 0 53.4557 0 58.0602C0 62.6648 3.73276 66.3976 8.33735 66.3976Z" fill="#D2E9F7"/>
<path d="M91.4216 31.3855H102.867" stroke="#0686D8" stroke-width="1.5" stroke-miterlimit="10" stroke-linecap="round"/>
<path d="M107.385 31.3855H105.217" stroke="#0686D8" stroke-width="1.5" stroke-miterlimit="10" stroke-linecap="round"/>
<path d="M110.94 31.3855H114.747" stroke="#0686D8" stroke-width="1.5" stroke-miterlimit="10" stroke-linecap="round"/>
<path d="M112.843 33.2892V29.4819" stroke="#0686D8" stroke-width="1.5" stroke-miterlimit="10" stroke-linecap="round"/>
<path d="M208.349 47.8433H213.506" stroke="#0686D8" stroke-width="1.5" stroke-miterlimit="10" stroke-linecap="round"/>
<path d="M210.928 50.4217V45.2771" stroke="#0686D8" stroke-width="1.5" stroke-miterlimit="10" stroke-linecap="round"/>
<path d="M65.9758 24.6145H70.4096" stroke="#0686D8" stroke-width="1.5" stroke-miterlimit="10" stroke-linecap="round"/>
<path d="M68.1929 26.8194V22.3977" stroke="#0686D8" stroke-width="1.5" stroke-miterlimit="10" stroke-linecap="round"/>
<path d="M158.675 46.4699L155.542 43.3374" stroke="#0686D8" stroke-width="1.5" stroke-miterlimit="10" stroke-linecap="round"/>
<path d="M155.542 46.4699L158.675 43.3374" stroke="#0686D8" stroke-width="1.5" stroke-miterlimit="10" stroke-linecap="round"/>
<path d="M242.735 57.8915L246.374 54.2529" stroke="#0686D8" stroke-width="1.5" stroke-miterlimit="10" stroke-linecap="round"/>
<path d="M246.374 57.8915L242.735 54.2529" stroke="#0686D8" stroke-width="1.5" stroke-miterlimit="10" stroke-linecap="round"/>
<path d="M66.9758 62.1205L70.6144 58.4819" stroke="#0686D8" stroke-width="1.5" stroke-miterlimit="10" stroke-linecap="round"/>
<path d="M70.6144 62.1205L66.9758 58.4819" stroke="#0686D8" stroke-width="1.5" stroke-miterlimit="10" stroke-linecap="round"/>
<path d="M199.277 25.4096L202.41 22.2771" stroke="#0686D8" stroke-width="1.5" stroke-miterlimit="10" stroke-linecap="round"/>
<path d="M202.41 25.4096L199.277 22.2771" stroke="#0686D8" stroke-width="1.5" stroke-miterlimit="10" stroke-linecap="round"/>
<path d="M53.6023 40.9036H105.048" stroke="#0686D8" stroke-width="1.5" stroke-miterlimit="10" stroke-linecap="round"/>
<path d="M218.639 47.8433H234.422" stroke="#0686D8" stroke-width="1.5" stroke-miterlimit="10" stroke-linecap="round"/>
<path d="M205.928 44.9036H173.133" stroke="#0686D8" stroke-width="1.5" stroke-miterlimit="10" stroke-linecap="round"/>
<path d="M164.012 44.9036H169" stroke="#0686D8" stroke-width="1.5" stroke-miterlimit="10" stroke-linecap="round"/>
<path d="M240.892 83.5662L243.181 82.2529L245.47 83.5662V86.2168L243.181 87.53L240.892 86.2168V83.5662Z" fill="#0686D8"/>
<path d="M96.0842 7.0483L98.0601 5.91577L100.024 7.0483V9.31336L98.0601 10.4579L96.0842 9.31336V7.0483Z" fill="#0686D8"/>
<path d="M21 83.7953L23.2892 82.47L25.5783 83.7953V86.4338L23.2892 87.7591L21 86.4338V83.7953Z" fill="#0686D8"/>
<path d="M164.651 20.7469L167.313 19.2168L169.964 20.7469V23.8072L167.313 25.3373L164.651 23.8072V20.7469Z" fill="#0686D8"/>
<path d="M170.482 110.06H80.012C78.8554 110.06 77.8675 109.217 77.6747 108.072L76.7952 102.723H117.012L118.554 104.928H129.663L131.325 102.723H173.687L172.807 108.072C172.614 109.217 171.626 110.06 170.47 110.06H170.482Z" fill="#0686D8"/>
<path d="M173.398 108.084L174.277 102.735H131.916L130.253 104.94H119.145L117.602 102.735H77.3855L78.265 108.084C78.4578 109.229 79.4457 110.072 80.6024 110.072H171.072C172.229 110.072 173.217 109.229 173.41 108.084H173.398Z" stroke="#0686D8" stroke-width="1.5" stroke-miterlimit="10"/>
<path d="M142.795 45.9277H81.7953C81.482 45.9277 81.229 46.1807 81.229 46.494V102.735" stroke="#0686D8" stroke-width="1.5" stroke-miterlimit="10"/>
<path d="M170.422 102.735V46.494C170.422 46.1807 170.169 45.9277 169.856 45.9277H141.988" stroke="#0686D8" stroke-width="1.5" stroke-miterlimit="10"/>
<path d="M90.1807 93.8071H160.313" stroke="#0686D8" stroke-width="1.5" stroke-miterlimit="10"/>
<path opacity="0.3" d="M157.735 56.6987C157.096 56.6987 156.59 57.1927 156.59 57.7831V110.06H158.398H162.084H163.892H167.843H169.651H173.313C173.819 109.614 174.169 109.012 174.289 108.325L175.337 102.253H171.325V56.6987H157.735Z" fill="#5FB0E5"/>
<path d="M206.386 55.1445H161.349C161.217 55.1445 161.108 55.265 161.108 55.4096V110.072H206.639V55.4096C206.639 55.265 206.53 55.1445 206.398 55.1445H206.386Z" fill="white"/>
<path d="M206.386 55.1445H161.349C161.217 55.1445 161.108 55.1566 161.108 55.1807V63.2168H206.639V55.1807C206.639 55.1807 206.53 55.1445 206.398 55.1445H206.386Z" fill="#0686D8"/>
<path d="M213.651 70.8916L186.169 98.1808L177.217 89.2651L161.277 105.374" stroke="#0686D8" stroke-width="1.5" stroke-miterlimit="10"/>
<path d="M214.337 74.506V70.1445H209.976" stroke="#0686D8" stroke-width="1.5" stroke-miterlimit="10"/>
<path d="M206.626 82.3735V110.06" stroke="#0686D8" stroke-width="1.5" stroke-miterlimit="10"/>
<path d="M206.626 73.7109V54.9277C206.626 54.7952 206.518 54.6868 206.386 54.6868H161.349C161.217 54.6868 161.108 54.7952 161.108 54.9277V110.072" stroke="#0686D8" stroke-width="1.5" stroke-miterlimit="10"/>
<path d="M161.108 63.2168H206.626" stroke="#0686D8" stroke-width="1.5" stroke-miterlimit="10"/>
<path d="M168.253 58.7229H165.325" stroke="white" stroke-width="1.5" stroke-miterlimit="10"/>
<path d="M170.723 58.7229H173.651" stroke="white" stroke-width="1.5" stroke-miterlimit="10"/>
<path d="M176.12 58.7229H179.048" stroke="white" stroke-width="1.5" stroke-miterlimit="10"/>
<path d="M166.602 67.0964V77.4097H201.145" stroke="#0686D8" stroke-width="1.5" stroke-miterlimit="10"/>
<path d="M166.602 99.988V110.06" stroke="#0686D8" stroke-width="1.5" stroke-miterlimit="10"/>
<path d="M172.361 110.06V93.6506" stroke="#0686D8" stroke-width="1.5" stroke-miterlimit="10"/>
<path d="M178.12 89.8433V110.06" stroke="#0686D8" stroke-width="1.5" stroke-miterlimit="10"/>
<path d="M183.867 110.06V96.1807" stroke="#0686D8" stroke-width="1.5" stroke-miterlimit="10"/>
<path d="M189.626 110.06V94.9158" stroke="#0686D8" stroke-width="1.5" stroke-miterlimit="10"/>
<path d="M195.385 88.5662V110.06" stroke="#0686D8" stroke-width="1.5" stroke-miterlimit="10"/>
<path d="M201.145 110.06V83.4939" stroke="#0686D8" stroke-width="1.5" stroke-miterlimit="10"/>
<path d="M17.7471 110.06H239.651" stroke="#0686D8" stroke-width="1.5" stroke-miterlimit="10" stroke-linecap="round"/>
<path d="M242.916 110.06H246.193" stroke="#0686D8" stroke-width="1.5" stroke-miterlimit="10" stroke-linecap="round"/>
<path d="M14.4939 110.06H8.9397" stroke="#0686D8" stroke-width="1.5" stroke-miterlimit="10" stroke-linecap="round"/>
<path d="M230.928 91.7109H201.024C199.713 91.7109 198.651 92.7736 198.651 94.0844V107.59C198.651 108.901 199.713 109.964 201.024 109.964H230.928C232.239 109.964 233.301 108.901 233.301 107.59V94.0844C233.301 92.7736 232.239 91.7109 230.928 91.7109Z" fill="#D2E9F7"/>
<path d="M222.313 100.831C222.313 104.337 219.47 107.169 215.976 107.169C212.482 107.169 209.639 104.325 209.639 100.831C209.639 97.3373 212.482 94.4939 215.976 94.4939C219.47 94.4939 222.313 97.3373 222.313 100.831Z" fill="white"/>
<path d="M218.229 97.9639H215.157C214.313 97.9639 213.639 98.6386 213.639 99.4819C213.639 100.325 214.313 101 215.157 101H216.614C217.458 101 218.133 101.675 218.133 102.518C218.133 103.361 217.458 104.036 216.614 104.036H213.446" stroke="#0686D8" stroke-width="1.5" stroke-miterlimit="10"/>
<path d="M215.964 96.3855V97.9638" stroke="#0686D8" stroke-width="1.5" stroke-miterlimit="10"/>
<path d="M215.964 105.494V104.024" stroke="#0686D8" stroke-width="1.5" stroke-miterlimit="10"/>
<path d="M233.169 107.687V94.1806C233.169 92.8698 232.106 91.8071 230.795 91.8071H200.892C199.581 91.8071 198.518 92.8698 198.518 94.1806V107.687C198.518 108.997 199.581 110.06 200.892 110.06H230.795C232.106 110.06 233.169 108.997 233.169 107.687Z" stroke="#0686D8" stroke-width="1.5" stroke-miterlimit="10" stroke-linecap="round"/>
<path d="M198.518 97.1928C201.494 97.1928 203.892 94.7832 203.892 91.8193" stroke="#0686D8" stroke-width="1.5" stroke-miterlimit="10" stroke-linecap="round"/>
<path d="M227.783 91.8071C227.783 94.783 230.193 97.1806 233.157 97.1806" stroke="#0686D8" stroke-width="1.5" stroke-miterlimit="10" stroke-linecap="round"/>
<path d="M203.904 110.06C203.904 107.084 201.494 104.687 198.53 104.687" stroke="#0686D8" stroke-width="1.5" stroke-miterlimit="10" stroke-linecap="round"/>
<path d="M233.169 104.687C230.193 104.687 227.795 107.096 227.795 110.06" stroke="#0686D8" stroke-width="1.5" stroke-miterlimit="10" stroke-linecap="round"/>
<path d="M215.843 94.6023C212.337 94.6023 209.506 97.4457 209.506 100.94C209.506 104.434 212.349 107.277 215.843 107.277C219.337 107.277 222.181 104.434 222.181 100.94C222.181 97.4457 219.337 94.6023 215.843 94.6023Z" stroke="#0686D8" stroke-width="1.5" stroke-miterlimit="10" stroke-linecap="round"/>
<path d="M205.554 100.94H207.602" stroke="#0686D8" stroke-width="1.5" stroke-miterlimit="10"/>
<path d="M223.867 100.94H225.928" stroke="#0686D8" stroke-width="1.5" stroke-miterlimit="10"/>
<path d="M43.8916 42.2048C35.1326 42.2048 28.0242 49.3133 28.0242 58.0723C28.0242 66.8313 35.1326 73.9398 43.8916 73.9398C52.6507 73.9398 59.7591 66.8313 59.7591 58.0723C59.7591 49.3133 52.6507 42.2048 43.8916 42.2048ZM43.8916 70.0482C37.2772 70.0482 31.9037 64.6868 31.9037 58.0603C31.9037 51.4337 37.2651 46.0723 43.8916 46.0723C50.5181 46.0723 55.8796 51.4337 55.8796 58.0603C55.8796 64.6868 50.5181 70.0482 43.8916 70.0482Z" fill="#0686D8"/>
<path d="M47.4217 77.0964H43.4819V109.952H47.4217V77.0964Z" fill="white"/>
<path d="M47.4217 77.0964H43.4819V109.952H47.4217V77.0964Z" stroke="#0686D8" stroke-width="1.5" stroke-miterlimit="10"/>
<path d="M45.4458 73.2891V76.4095" stroke="#0686D8" stroke-width="1.5" stroke-miterlimit="10"/>
<path d="M57.3132 49.6146C56.6987 48.6386 55.9638 47.7109 55.1083 46.8555C48.9156 40.6627 38.8674 40.6627 32.6746 46.8555C26.4818 53.0483 26.4818 63.0965 32.6746 69.2892C38.8674 75.482 48.9156 75.482 55.1083 69.2892C59.3252 65.0724 60.6746 59.0724 59.1445 53.7109" stroke="#0686D8" stroke-width="1.5" stroke-miterlimit="10"/>
<path d="M30.0361 66.6385L42.0602 54.4819L48.7952 61.2168L64.747 45.3855" stroke="#0686D8" stroke-width="1.5" stroke-miterlimit="10"/>
<path d="M65.5421 47.8795V44.5903H62.2529" stroke="#0686D8" stroke-width="1.5" stroke-miterlimit="10"/>
<path d="M57.6507 43.6987C49.7952 35.8433 37.0483 35.8433 29.1928 43.6987C21.3374 51.5541 21.3374 64.3011 29.1928 72.1565C31.5422 74.5059 34.3374 76.1565 37.3013 77.1083" stroke="#0686D8" stroke-width="1.5" stroke-miterlimit="10"/>
<path opacity="0.3" d="M96.2289 109.831V86.8313H95.5783V86.024H97.2771C97.8795 86.024 98.3855 85.53 98.3855 84.9156V78.2409C98.3855 77.6144 97.8795 77.1084 97.2409 77.1084H93.4819V73.9758H91.6747V77.1084H84.8795V73.9758H83.0723V77.1084H80.3253V101.843H76.3132L77.3614 108.241C77.6265 109.831 78.9759 110.976 80.5903 110.976H95.0964C95.7229 110.976 96.2409 110.47 96.2409 109.831H96.2289Z" fill="#5FB0E5"/>
<path d="M52.9519 84.1567V109.807C52.9519 109.952 53.0603 110.072 53.1929 110.072H92.3374C92.47 110.072 92.5784 109.952 92.5784 109.807V84.1567H52.964H52.9519Z" fill="white"/>
<path d="M52.9519 88.723C52.9519 88.8676 53.0603 88.9881 53.1929 88.9881H92.3374C92.47 88.9881 92.5784 88.8676 92.5784 88.723V84.1567H52.964V88.723H52.9519Z" fill="#D2E9F7"/>
<path d="M94.4819 77.8193H51.0361C50.9036 77.8193 50.7952 77.9278 50.7952 78.0603V84.735C50.7952 84.8434 50.8795 84.9398 51 84.9398H94.5181C94.6265 84.9398 94.7229 84.8555 94.7229 84.735V78.0603C94.7229 77.9278 94.6144 77.8193 94.4819 77.8193Z" fill="#0686D8"/>
<path d="M94.4819 77.8193H51.0361C50.9036 77.8193 50.7952 77.9278 50.7952 78.0603V80.4699C50.7952 80.3374 50.9036 80.229 51.0361 80.229H94.4819C94.6144 80.229 94.7229 80.3374 94.7229 80.4699V78.0603C94.7229 77.9278 94.6144 77.8193 94.4819 77.8193Z" fill="#0686D8"/>
<path d="M79.8072 95.5302C79.8072 99.3736 76.6867 102.482 72.8554 102.482C69.024 102.482 65.9036 99.3615 65.9036 95.5302C65.9036 91.6989 69.024 88.5784 72.8554 88.5784C76.6867 88.5784 79.8072 91.6989 79.8072 95.5302Z" fill="#D2E9F7"/>
<path d="M92.3133 86.8313V109.831C92.3133 109.964 92.2048 110.072 92.0723 110.072H52.9277C52.7952 110.072 52.6868 109.964 52.6868 109.831V86.8313" stroke="#0686D8" stroke-width="1.5" stroke-miterlimit="10"/>
<path d="M94.2651 85.1085C94.3736 85.1085 94.4699 85.0242 94.4699 84.9037V78.229C94.4699 78.0965 94.3615 77.988 94.229 77.988H50.7832C50.6507 77.988 50.5422 78.0965 50.5422 78.229V84.9037C50.5422 85.0121 50.6266 85.1085 50.7471 85.1085H94.2651Z" stroke="#0686D8" stroke-width="1.5" stroke-miterlimit="10"/>
<path d="M55.1687 80.5904V73.9639" stroke="#0686D8" stroke-width="1.5" stroke-miterlimit="10"/>
<path d="M63.771 80.5904V73.9639" stroke="#0686D8" stroke-width="1.5" stroke-miterlimit="10"/>
<path d="M72.3616 80.5904V73.9639" stroke="#0686D8" stroke-width="1.5" stroke-miterlimit="10"/>
<path d="M80.9639 80.5904V73.9639" stroke="#0686D8" stroke-width="1.5" stroke-miterlimit="10"/>
<path d="M89.5542 80.5904V73.9639" stroke="#0686D8" stroke-width="1.5" stroke-miterlimit="10"/>
<path d="M70.0481 95.4698L72.1806 97.6024L76.8312 92.9397" stroke="#0686D8" stroke-width="1.5" stroke-miterlimit="10"/>
<path d="M64.494 105.169H62.5542" stroke="#0686D8" stroke-width="1.5" stroke-miterlimit="10"/>
<path d="M68.7952 105.169H66.8555" stroke="#0686D8" stroke-width="1.5" stroke-miterlimit="10"/>
<path d="M71.1567 105.169H73.0965" stroke="#0686D8" stroke-width="1.5" stroke-miterlimit="10"/>
<path d="M75.4578 105.169H77.3975" stroke="#0686D8" stroke-width="1.5" stroke-miterlimit="10"/>
<path d="M79.759 105.169H81.6988" stroke="#0686D8" stroke-width="1.5" stroke-miterlimit="10"/>
<path d="M72.7589 88.5784C68.9156 88.5784 65.8071 91.6989 65.8071 95.5302C65.8071 99.3615 68.9276 102.482 72.7589 102.482C76.5903 102.482 79.7107 99.3615 79.7107 95.5302C79.7107 91.6989 76.5903 88.5784 72.7589 88.5784Z" stroke="#0686D8" stroke-width="1.5" stroke-miterlimit="10"/>
<path d="M60.2047 106.096L62.4939 108.096L60.2047 110.096H26.771V106.096H60.2047Z" fill="white"/>
<path d="M26.53 106.096V110.096H59.9638L62.2529 108.096L59.9638 106.096H26.53Z" stroke="#0686D8" stroke-width="1.5" stroke-miterlimit="10"/>
<path d="M22.6506 108.096H26" stroke="#0686D8" stroke-width="1.5" stroke-miterlimit="10"/>
<path d="M61.6023 108.096H64.9517" stroke="#0686D8" stroke-width="1.5" stroke-miterlimit="10"/>
<path d="M45.8674 106.012V110.181" stroke="#0686D8" stroke-width="1.5" stroke-miterlimit="10"/>
<path d="M56.9519 110.181V106.012" stroke="#0686D8" stroke-width="1.5" stroke-miterlimit="10"/>
<path d="M39.8917 103.325H28.9158V106.096" stroke="#0686D8" stroke-width="1.5" stroke-miterlimit="10"/>
<path opacity="0.3" d="M169.868 46.5061H82.5422C82.2772 46.5061 82.0603 46.5302 82.0603 46.5543V56.8555H170.337V46.5543C170.337 46.5543 170.121 46.5061 169.855 46.5061H169.868Z" fill="#5FB0E5"/>
<path d="M152.458 53.6867L132.06 33.0964C131.976 33.012 131.88 33 131.771 33.012C131.663 33 131.566 33.012 131.482 33.0964L111.084 53.6867C110.867 53.9036 111.024 54.265 111.325 54.265H120.325V93.6024H143.193V54.265H152.193C152.494 54.265 152.651 53.9036 152.434 53.6867H152.458Z" fill="white" stroke="#0686D8" stroke-width="1.5" stroke-miterlimit="10" stroke-linecap="round"/>
<path d="M135.639 58.6024L117.759 40.5422C117.687 40.4699 117.602 40.4578 117.506 40.4699C117.41 40.4699 117.325 40.4699 117.253 40.5422L99.3735 58.6024C99.1807 58.7952 99.3132 59.1084 99.5783 59.1084H107.47V93.6145H127.53V59.1084H135.422C135.687 59.1084 135.819 58.7831 135.626 58.6024H135.639Z" fill="#D2E9F7" stroke="#0686D8" stroke-width="1.5" stroke-miterlimit="10" stroke-linecap="round"/>
</g>
<defs>
<clipPath id="clip0_32226_41344">
<rect width="251.41" height="111" fill="white"/>
</clipPath>
</defs>
</svg>
